<?xml version="1.0" encoding="UTF-8" standalone="no"?>
<!-- Created with Inkscape (http://www.inkscape.org/) -->

<svg
   xmlns:dc="http://purl.org/dc/elements/1.1/"
   xmlns:cc="http://creativecommons.org/ns#"
   xmlns:rdf="http://www.w3.org/1999/02/22-rdf-syntax-ns#"
   xmlns:svg="http://www.w3.org/2000/svg"
   xmlns="http://www.w3.org/2000/svg"
   xmlns:sodipodi="http://sodipodi.sourceforge.net/DTD/sodipodi-0.dtd"
   xmlns:inkscape="http://www.inkscape.org/namespaces/inkscape"
   width="400mm"
   height="300mm"
   viewBox="0 0 400 300"
   version="1.1"
   id="svg122"
   inkscape:version="0.92.1 r15371"
   sodipodi:docname="Zeichnung_vorne_hinten.svg">
  <defs
     id="defs116" />
  <sodipodi:namedview
     id="base"
     pagecolor="#ffffff"
     bordercolor="#666666"
     borderopacity="1.0"
     inkscape:pageopacity="0.0"
     inkscape:pageshadow="2"
     inkscape:zoom="0.35"
     inkscape:cx="370.5678"
     inkscape:cy="499.21302"
     inkscape:document-units="mm"
     inkscape:current-layer="layer1"
     showgrid="false"
     inkscape:window-width="1280"
     inkscape:window-height="657"
     inkscape:window-x="-8"
     inkscape:window-y="-8"
     inkscape:window-maximized="1" />
  <metadata
     id="metadata119">
    <rdf:RDF>
      <cc:Work
         rdf:about="">
        <dc:format>image/svg+xml</dc:format>
        <dc:type
           rdf:resource="http://purl.org/dc/dcmitype/StillImage" />
        <dc:title></dc:title>
      </cc:Work>
    </rdf:RDF>
  </metadata>
  <g
     inkscape:label="Ebene 1"
     inkscape:groupmode="layer"
     id="layer1"
     transform="translate(0,3)">
    <g
       id="g176"
       transform="translate(175,5.0155473e-6)">
      <path
         id="rect124"
         d="M 0.06611498,-2.9338913 H 159.93388 V 296.93388 H 0.06611498 Z"
         style="fill:#ffffff;stroke:#000000;stroke-width:0.13222997;stroke-miterlimit:4;stroke-dasharray:none"
         inkscape:connector-curvature="0" />
      <path
         id="rect130"
         d="m 30.039782,237.03978 h 99.920428 v 39.92044 H 30.039782 Z"
         style="fill:#ffffff;stroke:#000000;stroke-width:0.07956488;stroke-miterlimit:4;stroke-dasharray:none"
         inkscape:connector-curvature="0" />
      <path
         id="path132"
         d="M 16.386587,247 A 1.3865869,1.3865868 0 0 1 15,248.38659 1.3865869,1.3865868 0 0 1 13.613413,247 1.3865869,1.3865868 0 0 1 15,245.61341 1.3865869,1.3865868 0 0 1 16.386587,247 Z"
         style="fill:#ffffff;stroke:#000000;stroke-width:0.02682636;stroke-miterlimit:4;stroke-dasharray:none"
         inkscape:connector-curvature="0" />
      <path
         id="path134"
         d="M 146.39041,247 A 1.3904121,1.3904121 0 0 1 145,248.39041 1.3904121,1.3904121 0 0 1 143.60959,247 1.3904121,1.3904121 0 0 1 145,245.60959 1.3904121,1.3904121 0 0 1 146.39041,247 Z"
         style="fill:#ffffff;stroke:#000000;stroke-width:0.01917588;stroke-miterlimit:4;stroke-dasharray:none"
         inkscape:connector-curvature="0" />
      <path
         id="path136"
         d="M 5.4880644,212 A 1.4880644,1.4880644 0 0 1 4,213.48806 1.4880644,1.4880644 0 0 1 2.5119356,212 1.4880644,1.4880644 0 0 1 4,210.51194 1.4880644,1.4880644 0 0 1 5.4880644,212 Z"
         style="fill:#ffffff;stroke:#000000;stroke-width:0.02387112;stroke-miterlimit:4;stroke-dasharray:none"
         inkscape:connector-curvature="0" />
      <path
         id="path138"
         d="M 157.48592,212 A 1.4859238,1.4859238 0 0 1 156,213.48592 1.4859238,1.4859238 0 0 1 154.51408,212 1.4859238,1.4859238 0 0 1 156,210.51408 1.4859238,1.4859238 0 0 1 157.48592,212 Z"
         style="fill:#ffffff;stroke:#000000;stroke-width:0.02815236;stroke-miterlimit:4;stroke-dasharray:none"
         inkscape:connector-curvature="0" />
      <path
         id="path140"
         d="M 5.4880644,152 A 1.4880644,1.4880644 0 0 1 4,153.48806 1.4880644,1.4880644 0 0 1 2.5119356,152 1.4880644,1.4880644 0 0 1 4,150.51194 1.4880644,1.4880644 0 0 1 5.4880644,152 Z"
         style="fill:#ffffff;stroke:#000000;stroke-width:0.02387112;stroke-miterlimit:4;stroke-dasharray:none"
         inkscape:connector-curvature="0" />
      <path
         id="path142"
         d="M 157.48906,152 A 1.4890568,1.4890568 0 0 1 156,153.48906 1.4890568,1.4890568 0 0 1 154.51094,152 1.4890568,1.4890568 0 0 1 156,150.51094 1.4890568,1.4890568 0 0 1 157.48906,152 Z"
         style="fill:#ffffff;stroke:#000000;stroke-width:0.0218864;stroke-miterlimit:4;stroke-dasharray:none"
         inkscape:connector-curvature="0" />
      <path
         id="path144"
         d="M 16.386406,47 A 1.3864056,1.3864056 0 0 1 15,48.386406 1.3864056,1.3864056 0 0 1 13.613594,47 1.3864056,1.3864056 0 0 1 15,45.613594 1.3864056,1.3864056 0 0 1 16.386406,47 Z"
         style="fill:#ffffff;stroke:#000000;stroke-width:0.02718881;stroke-miterlimit:4;stroke-dasharray:none"
         inkscape:connector-curvature="0" />
      <path
         id="path146"
         d="M 146.38586,47 A 1.3858562,1.3858562 0 0 1 145,48.385856 1.3858562,1.3858562 0 0 1 143.61414,47 1.3858562,1.3858562 0 0 1 145,45.614144 1.3858562,1.3858562 0 0 1 146.38586,47 Z"
         style="fill:#ffffff;stroke:#000000;stroke-width:0.02828779;stroke-miterlimit:4;stroke-dasharray:none"
         inkscape:connector-curvature="0" />
    </g>
    <g
       id="g205"
       transform="translate(5)">
      <path
         id="path150"
         d="M 102.78728,34.846432 A 1.3872756,1.3872756 0 0 1 101.4,36.233707 1.3872756,1.3872756 0 0 1 100.01273,34.846432 1.3872756,1.3872756 0 0 1 101.4,33.459156 a 1.3872756,1.3872756 0 0 1 1.38728,1.387276 z"
         style="fill:#ffffff;stroke:#000000;stroke-width:0.02544876;stroke-miterlimit:4;stroke-dasharray:none"
         inkscape:connector-curvature="0" />
      <path
         id="rect126"
         d="M 0.06024837,-2.9397495 H 159.93975 V 296.93977 H 0.06024837 Z"
         style="fill:#ffffff;stroke:#000000;stroke-width:0.12049675;stroke-miterlimit:4;stroke-dasharray:none"
         inkscape:connector-curvature="0" />
      <path
         id="path148"
         d="M 18.383296,47 A 1.3832957,1.3832957 0 0 1 17,48.383296 1.3832957,1.3832957 0 0 1 15.616704,47 1.3832957,1.3832957 0 0 1 17,45.616704 1.3832957,1.3832957 0 0 1 18.383296,47 Z"
         style="fill:#ffffff;stroke:#000000;stroke-width:0.03340873;stroke-miterlimit:4;stroke-dasharray:none"
         inkscape:connector-curvature="0" />
      <path
         id="path152"
         d="M 18.387997,247 A 1.387997,1.3879972 0 0 1 17,248.388 1.387997,1.3879972 0 0 1 15.612003,247 1.387997,1.3879972 0 0 1 17,245.612 1.387997,1.3879972 0 0 1 18.387997,247 Z"
         style="fill:#ffffff;stroke:#000000;stroke-width:0.0240058;stroke-miterlimit:4;stroke-dasharray:none"
         inkscape:connector-curvature="0" />
      <path
         id="path154"
         d="M 144.38843,247 A 1.3884301,1.3884301 0 0 1 143,248.38843 1.3884301,1.3884301 0 0 1 141.61157,247 1.3884301,1.3884301 0 0 1 143,245.61157 1.3884301,1.3884301 0 0 1 144.38843,247 Z"
         style="fill:#ffffff;stroke:#000000;stroke-width:0.02313978;stroke-miterlimit:4;stroke-dasharray:none"
         inkscape:connector-curvature="0" />
      <path
         id="path148-8"
         d="M 144.3833,47 A 1.3832957,1.3832957 0 0 1 143,48.383296 1.3832957,1.3832957 0 0 1 141.6167,47 1.3832957,1.3832957 0 0 1 143,45.616704 1.3832957,1.3832957 0 0 1 144.3833,47 Z"
         style="fill:#ffffff;stroke:#000000;stroke-width:0.03340873;stroke-miterlimit:4;stroke-dasharray:none"
         inkscape:connector-curvature="0" />
    </g>
  </g>
</svg>
