<?xml version="1.0" encoding="UTF-8" standalone="no"?>
<!-- Created with Inkscape (http://www.inkscape.org/) -->

<svg
   xmlns:dc="http://purl.org/dc/elements/1.1/"
   xmlns:cc="http://creativecommons.org/ns#"
   xmlns:rdf="http://www.w3.org/1999/02/22-rdf-syntax-ns#"
   xmlns:svg="http://www.w3.org/2000/svg"
   xmlns="http://www.w3.org/2000/svg"
   xmlns:sodipodi="http://sodipodi.sourceforge.net/DTD/sodipodi-0.dtd"
   xmlns:inkscape="http://www.inkscape.org/namespaces/inkscape"
   width="400mm"
   height="300mm"
   viewBox="0 0 400 300"
   version="1.1"
   id="svg8"
   inkscape:version="0.92.1 r15371"
   sodipodi:docname="Zeichnung_boden_schiebetuer.svg">
  <defs
     id="defs2" />
  <sodipodi:namedview
     id="base"
     pagecolor="#ffffff"
     bordercolor="#666666"
     borderopacity="1.0"
     inkscape:pageopacity="0.0"
     inkscape:pageshadow="2"
     inkscape:zoom="0.39334722"
     inkscape:cx="425.85083"
     inkscape:cy="579.856"
     inkscape:document-units="mm"
     inkscape:current-layer="layer1"
     showgrid="false"
     inkscape:measure-start="774.008,737.353"
     inkscape:measure-end="0,0"
     showguides="false"
     inkscape:snap-global="false"
     inkscape:window-width="1280"
     inkscape:window-height="657"
     inkscape:window-x="-8"
     inkscape:window-y="-8"
     inkscape:window-maximized="1" />
  <metadata
     id="metadata5">
    <rdf:RDF>
      <cc:Work
         rdf:about="">
        <dc:format>image/svg+xml</dc:format>
        <dc:type
           rdf:resource="http://purl.org/dc/dcmitype/StillImage" />
        <dc:title></dc:title>
      </cc:Work>
    </rdf:RDF>
  </metadata>
  <g
     inkscape:label="Ebene 1"
     inkscape:groupmode="layer"
     id="layer1"
     transform="translate(0,3)">
    <g
       id="g22"
       transform="translate(5,-165)">
      <path
         id="rect10"
         d="M 0.04835749,167.04836 H 118.95164 V 296.95164 H 0.04835749 Z"
         style="fill:#ffffff;stroke:#000000;stroke-width:0.09671497;stroke-miterlimit:4;stroke-dasharray:none"
         inkscape:connector-curvature="0" />
      <path
         id="path12"
         d="M 61.47322,182 A 1.9732195,1.9732195 0 0 1 59.5,183.97322 1.9732195,1.9732195 0 0 1 57.52678,182 1.9732195,1.9732195 0 0 1 59.5,180.02678 1.9732195,1.9732195 0 0 1 61.47322,182 Z"
         style="fill:#ffffff;stroke:#000000;stroke-width:0.05356106;stroke-miterlimit:4;stroke-dasharray:none"
         inkscape:connector-curvature="0" />
      <path
         id="path14"
         d="M 61.479459,277 A 1.9794588,1.9794588 0 0 1 59.5,278.97946 1.9794588,1.9794588 0 0 1 57.520541,277 1.9794588,1.9794588 0 0 1 59.5,275.02054 1.9794588,1.9794588 0 0 1 61.479459,277 Z"
         style="fill:#ffffff;stroke:#000000;stroke-width:0.04108236;stroke-miterlimit:4;stroke-dasharray:none"
         inkscape:connector-curvature="0" />
    </g>
    <g
       id="g112"
       transform="translate(128.89637,-125)">
      <path
         inkscape:connector-curvature="0"
         style="fill:#ffffff;stroke:#000000;stroke-width:0.13264848;stroke-miterlimit:4;stroke-dasharray:none"
         d="M 0.06632,127.06632 H 159.93368 V 296.93368 H 0.06632 Z"
         id="rect24" />
      <path
         id="path26"
         d="M 18.38598,167 A 1.3859795,1.3859794 0 0 1 17,168.38598 1.3859795,1.3859794 0 0 1 15.61402,167 1.3859795,1.3859794 0 0 1 17,165.61402 1.3859795,1.3859794 0 0 1 18.38598,167 Z"
         style="fill:#ffffff;stroke:#000000;stroke-width:0.02804106;stroke-miterlimit:4;stroke-dasharray:none"
         inkscape:connector-curvature="0" />
      <path
         id="path28"
         d="M 18.3887,257 A 1.3887047,1.3887045 0 0 1 17,258.3887 1.3887047,1.3887045 0 0 1 15.6113,257 1.3887047,1.3887045 0 0 1 17,255.6113 1.3887047,1.3887045 0 0 1 18.3887,257 Z"
         style="fill:#ffffff;stroke:#000000;stroke-width:0.02259085;stroke-miterlimit:4;stroke-dasharray:none"
         inkscape:connector-curvature="0" />
      <path
         id="path30"
         d="M 144.38598,167 A 1.3859795,1.3859794 0 0 1 143,168.38598 1.3859795,1.3859794 0 0 1 141.61402,167 1.3859795,1.3859794 0 0 1 143,165.61402 1.3859795,1.3859794 0 0 1 144.38598,167 Z"
         style="fill:#ffffff;stroke:#000000;stroke-width:0.02804106;stroke-miterlimit:4;stroke-dasharray:none"
         inkscape:connector-curvature="0" />
      <path
         id="path32"
         d="M 144.38594,257 A 1.3859388,1.3859388 0 0 1 143,258.38594 1.3859388,1.3859388 0 0 1 141.61406,257 1.3859388,1.3859388 0 0 1 143,255.61406 1.3859388,1.3859388 0 0 1 144.38594,257 Z"
         style="fill:#ffffff;stroke:#000000;stroke-width:0.02812258;stroke-miterlimit:4;stroke-dasharray:none"
         inkscape:connector-curvature="0" />
      <path
         id="path34"
         d="M 74.46623,227 A 2.966229,2.966229 0 0 1 71.5,229.96623 2.966229,2.966229 0 0 1 68.53377,227 2.966229,2.966229 0 0 1 71.5,224.03377 2.966229,2.966229 0 0 1 74.46623,227 Z"
         style="fill:#ffffff;stroke:#000000;stroke-width:0.06754191;stroke-miterlimit:4;stroke-dasharray:none"
         inkscape:connector-curvature="0" />
      <path
         id="path36"
         d="M 90.46683,227 A 2.966831,2.966831 0 0 1 87.5,229.96683 2.966831,2.966831 0 0 1 84.53317,227 2.966831,2.966831 0 0 1 87.5,224.03317 2.966831,2.966831 0 0 1 90.46683,227 Z"
         style="fill:#ffffff;stroke:#000000;stroke-width:0.0663383;stroke-miterlimit:4;stroke-dasharray:none"
         inkscape:connector-curvature="0" />
    </g>
  </g>
</svg>
